<svg id="visual" viewBox="0 0 900 600" width="900" height="600" xmlns="http://www.w3.org/2000/svg" xmlns:xlink="http://www.w3.org/1999/xlink" version="1.1"><path d="M0 55L25 63C50 71 100 87 150 94C200 101 250 99 300 101C350 103 400 109 450 106C500 103 550 91 600 93C650 95 700 111 750 121C800 131 850 135 875 137L900 139L900 0L875 0C850 0 800 0 750 0C700 0 650 0 600 0C550 0 500 0 450 0C400 0 350 0 300 0C250 0 200 0 150 0C100 0 50 0 25 0L0 0Z" fill="#1e1a30"></path><path d="M0 193L25 199C50 205 100 217 150 227C200 237 250 245 300 256C350 267 400 281 450 296C500 311 550 327 600 316C650 305 700 267 750 265C800 263 850 297 875 314L900 331L900 137L875 135C850 133 800 129 750 119C700 109 650 93 600 91C550 89 500 101 450 104C400 107 350 101 300 99C250 97 200 99 150 92C100 85 50 69 25 61L0 53Z" fill="#211c35"></path><path d="M0 223L25 232C50 241 100 259 150 272C200 285 250 293 300 300C350 307 400 313 450 325C500 337 550 355 600 345C650 335 700 297 750 301C800 305 850 351 875 374L900 397L900 329L875 312C850 295 800 261 750 263C700 265 650 303 600 314C550 325 500 309 450 294C400 279 350 265 300 254C250 243 200 235 150 225C100 215 50 203 25 197L0 191Z" fill="#251f3b"></path><path d="M0 277L25 293C50 309 100 341 150 357C200 373 250 373 300 375C350 377 400 381 450 389C500 397 550 409 600 401C650 393 700 365 750 370C800 375 850 413 875 432L900 451L900 395L875 372C850 349 800 303 750 299C700 295 650 333 600 343C550 353 500 335 450 323C400 311 350 305 300 298C250 291 200 283 150 270C100 257 50 239 25 230L0 221Z" fill="#282140"></path><path d="M0 313L25 330C50 347 100 381 150 398C200 415 250 415 300 414C350 413 400 411 450 418C500 425 550 441 600 440C650 439 700 421 750 429C800 437 850 471 875 488L900 505L900 449L875 430C850 411 800 373 750 368C700 363 650 391 600 399C550 407 500 395 450 387C400 379 350 375 300 373C250 371 200 371 150 355C100 339 50 307 25 291L0 275Z" fill="#332b4d"></path><path d="M0 397L25 411C50 425 100 453 150 469C200 485 250 489 300 492C350 495 400 497 450 498C500 499 550 499 600 494C650 489 700 479 750 486C800 493 850 517 875 529L900 541L900 503L875 486C850 469 800 435 750 427C700 419 650 437 600 438C550 439 500 423 450 416C400 409 350 411 300 412C250 413 200 413 150 396C100 379 50 345 25 328L0 311Z" fill="#3e355a"></path><path d="M0 601L25 601C50 601 100 601 150 601C200 601 250 601 300 601C350 601 400 601 450 601C500 601 550 601 600 601C650 601 700 601 750 601C800 601 850 601 875 601L900 601L900 539L875 527C850 515 800 491 750 484C700 477 650 487 600 492C550 497 500 497 450 496C400 495 350 493 300 490C250 487 200 483 150 467C100 451 50 423 25 409L0 395Z" fill="#494068"></path></svg>